<svg xmlns="http://www.w3.org/2000/svg" width="288.196" height="91.659" viewBox="0 0 288.196 91.659">
  <g id="logo" transform="translate(-806.459 -163.418)">
    <path id="Path_1" data-name="Path 1" d="M65.405,0H49.249L44.567-14.642H21.159L16.523,0H.459L24.418-65.818H42ZM41.171-26.024,34.1-48.147A28.829,28.829,0,0,1,33-54.068h-.367a25.1,25.1,0,0,1-1.147,5.737l-7.16,22.307ZM99.554,0V-65.818h23.959q11.016,0,16.937,4.039A12.991,12.991,0,0,1,146.37-50.4a13.472,13.472,0,0,1-3.6,9.317,18.93,18.93,0,0,1-9.2,5.554v.184a18.239,18.239,0,0,1,11.222,5.187,14.5,14.5,0,0,1,4.2,10.511q0,9.042-6.472,14.343T124.844,0Zm14.825-54.895v15.605H120.9a10.863,10.863,0,0,0,7.229-2.226,7.587,7.587,0,0,0,2.639-6.127q0-7.252-10.832-7.252Zm0,26.621v17.35h8.032q5.141,0,8.055-2.387a7.973,7.973,0,0,0,2.915-6.518,7.439,7.439,0,0,0-2.869-6.2q-2.869-2.249-8.009-2.249ZM172.9,0H158.4V-69.582h14.5Zm34.607,1.147q-11.75,0-18.474-6.586t-6.724-17.877q0-11.658,6.977-18.245t18.864-6.586q11.7,0,18.359,6.586t6.655,17.418q0,11.7-6.862,18.5T207.507,1.147Zm.367-38.187a9.674,9.674,0,0,0-7.986,3.534q-2.846,3.534-2.846,10.006,0,13.54,10.924,13.54,10.419,0,10.419-13.907Q218.385-37.04,207.874-37.04ZM288.655-5.37q0,13.081-7.573,20.264t-21.939,7.183q-9.5,0-15.055-2.708V7.16a28.83,28.83,0,0,0,14.642,4.223q7.344,0,11.383-3.878t4.039-10.534V-6.747h-.184q-4.957,7.895-14.642,7.895-9,0-14.274-6.334t-5.278-16.982q0-11.934,5.875-18.956a19.18,19.18,0,0,1,15.468-7.022q8.583,0,12.852,6.609h.184V-47h14.5Zm-14.32-17.212V-26.3a11.424,11.424,0,0,0-2.639-7.6,8.536,8.536,0,0,0-6.862-3.144,8.872,8.872,0,0,0-7.573,3.764q-2.754,3.764-2.754,10.6,0,5.875,2.616,9.294a8.526,8.526,0,0,0,7.16,3.419,8.875,8.875,0,0,0,7.275-3.465A14.209,14.209,0,0,0,274.335-22.582Z" transform="translate(806 233)" fill="#fff"/>
    <ellipse id="Ellipse_11" data-name="Ellipse 11" cx="12.5" cy="12" rx="12.5" ry="12" transform="translate(915 175)" fill="#fff"/>
    <ellipse id="Ellipse_12" data-name="Ellipse 12" cx="12.5" cy="12" rx="12.5" ry="12" transform="translate(915 201)" fill="#fff"/>
    <ellipse id="Ellipse_13" data-name="Ellipse 13" cx="12.5" cy="15" rx="12.5" ry="15" transform="translate(1002 195)" fill="#fff"/>
    <ellipse id="Ellipse_14" data-name="Ellipse 14" cx="12.5" cy="15" rx="12.5" ry="15" transform="translate(1059 195)" fill="#fff"/>
  </g>
</svg>
